<?xml version="1.0" encoding="UTF-8"?>
<svg id="Calque_1" xmlns="http://www.w3.org/2000/svg" version="1.1" viewBox="0 0 841 841">
  <!-- Generator: Adobe Illustrator 30.2.1, SVG Export Plug-In . SVG Version: 2.1.1 Build 1)  -->
  <defs>
    <style>
      .st0 {
        fill: none;
        stroke: #9ae6b3;
        stroke-width: 3px;
      }

      .st1 {
        fill: #fff;
      }

      .st2 {
        fill: #35cc67;
      }

      .st3 {
        fill: #4c4c4c;
      }
    </style>
  </defs>
  <g>
    <path class="st0" d="M419.5,20.5L20.5,419.5" vector-effect="non-scaling-stroke"/>
    <path class="st0" d="M421.4,20.5l399.1,399" vector-effect="non-scaling-stroke"/>
    <path class="st0" d="M820.5,420.6l-399.1,399c-.5.5-1.3.5-1.8,0L20.5,420.6" vector-effect="non-scaling-stroke"/>
  </g>
  <path class="st2" d="M421.4,20.5l399.1,399v1.1l-399.1,399c-.5.5-1.3.5-1.8,0L20.5,420.6v-1.1L419.5,20.5h1.9Z"/>
  <path class="st1" d="M787.8,420.2c.2.2.2.4,0,.6l-367,367c-.2.2-.4.2-.6,0h0L53.3,420.8c-.2-.2-.2-.4,0-.6L420.2,53.2c.2-.2.4-.2.6,0,0,0,0,0,0,0l367,367Z"/>
  <path class="st3" d="M405.8,107.4l3.7,14.4c.3,1,0,2.1-.8,2.8L120.6,409.8c-.3.3-.7.4-1.1.2-.3,0-5.3-1-15-2.7-.4,0-.7-.3-1-.6-.2-.2-.2-.6,0-.8,8.9-9.5,18.7-17.8,28-27.1,65.9-65.9,102.4-102.4,109.4-109.4,6.1-6,12.9-12,19.3-18.4,65.4-65.4,98.9-98.9,100.5-100.5,7-7.1,14.4-14.3,22.2-21.6,6.5-6,13.9-13.3,22-21.8.2-.2.5-.2.7,0,0,0,.1.1.1.2Z"/>
  <path class="st3" d="M435.2,107.4c0-.3.3-.4.6-.4,0,0,.2,0,.2.1,8.1,8.5,15.5,15.8,22,21.8,7.8,7.2,15.2,14.4,22.2,21.6,1.6,1.7,35.1,35.2,100.5,100.5,6.4,6.4,13.3,12.3,19.3,18.4,7,7,43.5,43.5,109.4,109.4,9.3,9.3,19.1,17.6,28,27.1.2.2.2.5,0,.8-.3.3-.6.5-1,.6-9.7,1.7-14.7,2.6-15,2.7-.4.1-.8,0-1.1-.2L432.2,124.6c-.7-.7-1-1.8-.8-2.8l3.7-14.4Z"/>
  <path class="st2" d="M407.1,161.2l1.6,6.3c.2.9,0,1.9-.7,2.5-9,9-25,25.1-48.1,48.2-2.9,2.9-5.8,4.8-8.4,7.5-55.9,55.9-84.4,84.4-85.5,85.6-1.1,1.1-3,2.8-5.7,5.1-1.4,1.1-3.2,2.9-5.6,5.2-20.4,20.4-49.4,49.5-87.2,87.2-.4.4-.9.5-1.4.4l-8.1-1.5c-.2,0-.4-.3-.3-.5,0,0,0-.2.1-.2,14.2-14.2,27.3-27.4,39.4-39.4,3.2-3.2,6.3-5.4,9.2-8.3,48.5-48.5,88.2-88.2,119.1-119.1,2.2-2.2,4.2-4.1,6.1-5.8,3.1-2.7,5.2-4.5,6.3-5.6,26.6-26.6,49.2-49.2,67.9-67.9.3-.3.9-.4,1.3,0,.1.1.2.3.2.4Z"/>
  <path class="st2" d="M433.8,161.2c.1-.5.6-.8,1.1-.6.2,0,.3.1.4.2,18.7,18.7,41.3,41.3,67.9,67.9,1.1,1.1,3.2,3,6.3,5.6,1.9,1.7,4,3.6,6.2,5.8,30.9,30.9,70.6,70.6,119.2,119.2,2.9,2.9,6,5.1,9.2,8.3,12.1,12.1,25.2,25.2,39.4,39.4.2.2.2.4,0,.6,0,0-.1.1-.2.1l-8.1,1.5c-.5,0-1,0-1.4-.4-37.8-37.7-66.8-66.8-87.2-87.2-2.3-2.3-4.2-4.1-5.6-5.2-2.7-2.3-4.6-4-5.7-5.1-1.1-1.2-29.7-29.7-85.6-85.6-2.7-2.7-5.5-4.5-8.4-7.5-23.1-23.1-39.2-39.2-48.2-48.2-.7-.7-.9-1.6-.7-2.5l1.6-6.3Z"/>
  <path class="st2" d="M385.9,307.4c-11,4.1-20.6,8.7-28.8,13.6-28.1,16.9-45.6,41.5-52.6,73.6-5.5,25.4-4.4,53.1,6.1,77.1,8.2,18.9,23.6,34.4,41,45.8,10.1,6.6,20.8,12.2,32,16.7.5.2,1,0,1.2-.5,0-.1,0-.2,0-.3v-95.5c0-.3-.2-.5-.5-.6-1.5-.2-2.9-.2-4.4,0-10.5,1-21.7,1.2-33.4.9-.3,0-.6-.3-.6-.6v-27.2c0-.4.3-.7.7-.7h69.3c.3,0,.5.2.5.5h0s0,158.8,0,158.8c0,.4-.3.7-.7.7-.8,0-6.8-.6-18.1-1.8-20.4-2.2-39.7-8.6-57.8-19.3-36.7-21.7-60-60.1-66-101.9-3.1-21.4-3.1-42.3,1.9-63.6,4.8-20.7,14.1-39.1,28.1-55.1,16.2-18.6,36.1-32,59.7-41.3,16.6-6.6,34-10.9,52.2-12.9.4,0,.7.2.7.6,0,0,0,0,0,0v86.3c0,.4-.3.7-.7.7h-30.2c-.3,0-.5-.2-.5-.5-.5-4.4.8-8.4.8-13.1,0-22.3,0-34,0-35.3,0-2,.2-3.6.5-4.7,0-.1,0-.2-.1-.3,0,0,0,0-.1,0Z"/>
  <path class="st3" d="M460,490.2v44.6c0,.2.1.3.3.3,0,0,0,0,.1,0,2.3-.8,6.6-2.5,13.1-5,26.8-10.7,46-29,57.8-54.9,5.5-12,9.3-24.4,11.5-37.1,0-.3-.2-.7-.5-.7-2.3-.4-6,0-12.3.5-4,.3-7.4.4-10.2.3-12.1-.2-23.8,0-34.9.4-10.9.4-19.9.6-26.9.6-12.7,0-21.7,0-26.9,0-.3,0-.5-.2-.5-.5,0-16.1,0-29.3,0-39.5,0-9.4.9-19.4,1-28.5v-61.4c0-12.3,1.1-24.6,1-34.8,0-.5.4-.9.8-.9,0,0,0,0,0,0,6.3.6,12.4,1.5,18.4,2.6,23.1,4.2,46.6,16.4,64.2,31.6,15.7,13.6,29.2,29,40.6,46.3.4.6.2,1.4-.4,1.9,0,0,0,0,0,0l-24.9,14.4c-.8.4-1.7.2-2.2-.6-5.2-8.8-9.8-15.7-13.7-20.8-11.1-14.3-24.6-27.3-41-34.9-3.5-1.6-7.2-2.7-10.7-4.3-.2-.1-.5,0-.6.2,0,0,0,.1,0,.2,0,4.5-.8,8.8-.9,14.1,0,0,0,6.7,0,19.9,0,7.7-.9,14.3-.9,21.5,0,8.6.2,20.3-.7,31.2-.3,3.6-.4,7.7-.3,12.1,0,.4.3.7.7.7h113.3c.5,0,.9.4.9.9,0,0,0,0,0,.1-.7,6.1-1.4,12.2-2.1,18.1-3.3,25.7-10.7,51.9-24.1,74.1-16.2,26.9-40.7,45.9-70,57.1-14.6,5.6-29.2,10.1-43.9,13.4-.6.1-1.1-.2-1.2-.8,0,0,0-.1,0-.2-.2-3.1-.3-5-.2-5.8,1.1-16.3.8-36.7,1.7-53.9.4-7.8.5-15.3.3-22.6,0-.3.2-.6.5-.6,0,0,0,0,0,0h23.5c.4,0,.7.3.7.7Z"/>
  <path class="st3" d="M405.8,733.5c0,.3-.3.4-.6.4,0,0-.2,0-.2-.1-8.1-8.5-15.5-15.8-22-21.8-7.8-7.2-15.2-14.4-22.2-21.6-1.6-1.7-35.1-35.2-100.5-100.5-6.4-6.4-13.3-12.3-19.3-18.4-7-7-43.5-43.5-109.4-109.4-9.3-9.3-19.1-17.6-28-27.1-.2-.2-.2-.5,0-.8.3-.3.6-.5,1-.6,9.7-1.7,14.7-2.6,15-2.7.4-.1.8,0,1.1.2l288,285c.7.7,1,1.8.8,2.8l-3.7,14.4Z"/>
  <path class="st3" d="M435.2,733.5l-3.7-14.4c-.3-1,0-2.1.8-2.8l288.1-285.1c.3-.3.7-.4,1.1-.2.3,0,5.3,1,15,2.7.4,0,.7.3,1,.6.2.2.2.6,0,.8-8.9,9.5-18.7,17.8-28,27.1-65.9,65.9-102.4,102.4-109.4,109.4-6.1,6-12.9,11.9-19.3,18.4-65.4,65.4-98.9,98.9-100.5,100.5-7,7.1-14.4,14.3-22.2,21.6-6.5,6-13.8,13.3-22,21.8-.2.2-.5.2-.7,0,0,0-.1-.1-.1-.2Z"/>
  <path class="st2" d="M406.9,679.6c-.1.5-.6.8-1.1.6-.2,0-.3-.1-.4-.2-18.7-18.7-41.3-41.3-67.8-67.9-1.1-1.1-3.2-3-6.2-5.6-1.9-1.7-4-3.6-6.1-5.8-30.8-30.9-70.5-70.5-119-119-2.9-2.9-6-5.1-9.2-8.3-12.1-12-25.2-25.2-39.4-39.4-.2-.2-.2-.4,0-.6,0,0,.1,0,.2-.1l8.1-1.5c.5,0,1,0,1.4.4,37.7,37.7,66.8,66.7,87.1,87.1,2.3,2.3,4.2,4.1,5.6,5.2,2.7,2.3,4.6,4,5.7,5.1,1.1,1.2,29.6,29.7,85.5,85.5,2.7,2.7,5.5,4.5,8.4,7.5,23.1,23.1,39.1,39.1,48.1,48.1.7.7.9,1.6.7,2.5l-1.6,6.3Z"/>
  <path class="st2" d="M434.1,679.5l-1.6-6.3c-.2-.9,0-1.9.7-2.5,9-9,25-25,48.1-48.1,2.9-2.9,5.8-4.8,8.4-7.5,55.8-55.8,84.3-84.3,85.5-85.5,1.1-1.1,3-2.8,5.7-5.1,1.4-1.1,3.2-2.9,5.6-5.2,20.4-20.4,49.4-49.4,87.1-87.1.4-.4.9-.5,1.4-.4l8.1,1.5c.2,0,.4.3.3.5,0,0,0,.2-.1.2-14.2,14.2-27.3,27.3-39.3,39.4-3.2,3.2-6.3,5.4-9.2,8.2-48.5,48.5-88.1,88.1-119,119-2.2,2.2-4.2,4.1-6.1,5.8-3.1,2.7-5.2,4.5-6.2,5.6-26.5,26.5-49.1,49.2-67.8,67.8-.3.3-.9.4-1.3,0-.1-.1-.2-.3-.2-.4Z"/>
  <path class="st3" d="M98.6,564.1c.2-.2.5-.2.7,0,0,0,0,0,0,0l1.9,3.2c.2.3.1.7-.1,1l-8.6,8.6c-.8.8-1.9,1.1-2.9.9-8.3-1.6-14.3-5.8-17.9-12.6-3.3-6.4-3.5-12.9-.4-19.3,2.7-5.7,8.4-10.6,14.6-11.6,13.5-2.1,24.5,6.1,27.1,19.6.2,1.1-.5,2.1-1.6,2.3-.1,0-.2,0-.4,0h-.2c-1.3,0-2.4-1-2.7-2.3-1.6-10-10.3-16.2-20.3-15-7.3.8-13.9,8.2-13.9,15.4,0,8.9,4.3,15,12.9,18.2,1.9.7,3.4.4,4.5-.9,2.1-2.4,4.5-4.9,7.3-7.5Z"/>
  <path class="st3" d="M707.9,568.6l2.2,2.2c.3.3.3.8,0,1.1h0s-8.9,8.8-8.9,8.8c-.3.3-.3.8,0,1.1h0s25.5,25.8,25.5,25.8c.3.3.3.8,0,1.1h0s-2.2,2.2-2.2,2.2c-.3.3-.8.3-1.1,0h0s-25.4-25.7-25.4-25.7c-.3-.3-.8-.3-1.1,0h0s-9.1,9-9.1,9c-.3.3-.8.3-1.1,0,0,0,0,0,0,0l-2.2-2.4c-.3-.3-.3-.8,0-1l22.3-22c.3-.3.8-.3,1.1,0h0Z"/>
  <path class="st3" d="M127.8,623.6c0,0,0,.1-.1,0,0,0,0,0,0,0l-3.9-3.9c-.1-.1-.2-.3-.1-.4l3.3-15.1c0-.2,0-.4-.2-.5l-9.1-9.2c-.5-.5-1.3-.5-1.9,0,0,0,0,0,0,0l-7.5,7.4c-.8.8-2.1.8-2.8,0l-.6-.6c-.8-.8-.8-2.1,0-2.9l29-28.7c.2-.2.5-.2.7,0,5.9,5.9,11.4,10.6,15.1,17.3,3,5.4,2.4,10.5-1.7,15.2-4.3,4.9-9.7,6.3-16.2,4.4-.5-.1-1,.1-1.1.6,0,0,0,0,0,0-1.4,5.4-2.4,10.8-2.9,16.3Z"/>
  <path class="st1" d="M133.6,576.6c.3-.3.8-.3,1.2,0l8,8c4.5,4.5,5.3,11,1.8,14.5,0,0,0,0,0,0l-1.6,1.6c-3.5,3.5-10,2.7-14.5-1.8,0,0,0,0,0,0l-8-8c-.3-.3-.3-.8,0-1.2l13-13Z"/>
  <path class="st3" d="M681.4,634.1l15.7,2.9c.3,0,.4.3.4.6,0,0,0,.2-.1.3l-2,2c-.7.7-1.7,1-2.6.8l-13.5-2.5c-.7-.1-1.3,0-1.8.6l-8.7,8.6c-.3.3-.3.7,0,1l8.4,8.5c.4.4.4,1,0,1.3l-2,2c-.4.4-1,.4-1.4,0,0,0,0,0,0,0l-28.9-29.2c-.1-.1-.1-.4,0-.5,5-5.2,9.3-9.3,12.7-12.5,2.7-2.5,5.7-4,9-4.7,2.7-.5,4.8.3,7.4,1.5,6.9,3.3,10.9,11.3,7.1,18.6-.1.3,0,.6.2.7,0,0,0,0,.1,0Z"/>
  <path class="st3" d="M139.8,635c-.2-.2-.2-.5,0-.8,0,0,.1,0,.2-.1l42.3-16.1c.3-.1.7-.1,1,0,1.3.4,2.3,1.3,3,2.7.2.3.2.7,0,1.1l-15.8,41.3c-.3.8-1.2,1.2-2,.9-.2,0-.4-.2-.6-.4l-.5-.5c-1-1.1-1.3-2.7-.7-4,.9-2,1.7-4.1,2.5-6.3.7-1.9.6-3.2-1.1-4.6-.4-.4-4.8-4.8-13.2-13.4-.7-.7-1.7-.9-2.6-.6l-8.6,3.3c-.7.3-1.5,0-2-.4l-2.1-2.1Z"/>
  <path class="st1" d="M651.4,631c-.2-.2-.2-.4,0-.6h0s8.9-8.9,8.9-8.9c4.1-4.1,10.3-4.5,13.8-1l1.1,1.1c3.5,3.5,3.1,9.7-1,13.8l-8.9,8.9c-.2.2-.4.2-.6,0h0s-13.3-13.3-13.3-13.3Z"/>
  <path class="st1" d="M159.6,631.6l19.9-7.8c.4-.1.8,0,.9.4,0,.2,0,.4,0,.5l-7.8,19.9c-.1.4-.5.5-.9.4,0,0-.2,0-.2-.1l-12.1-12.1c-.3-.3-.3-.7,0-1,0,0,.1-.1.2-.1Z"/>
  <path class="st3" d="M214.7,648.9c2.7,2.4,6,5.7,9.9,10,5.9,6.5,10,14.5,2.7,22.2-11.3,11.8-22,1.2-29.7-7.6-.5-.5-1.3-.6-1.8-.1,0,0,0,0,0,0l-7.7,7.7c-.6.6-1.5.6-2.1,0l-1.2-1.2c-.6-.6-.6-1.6,0-2.2l29-28.7c.3-.3.7-.3,1,0Z"/>
  <path class="st1" d="M213.6,655.5c.3-.3.7-.3,1,0l7.6,7.6c4.6,4.6,5.4,11.1,2,14.6l-1.6,1.6c-3.5,3.5-10,2.6-14.6-2l-7.6-7.6c-.3-.3-.3-.7,0-1l13.3-13.3Z"/>
  <path class="st3" d="M640.5,664.6c8.5,8.3,8.4,22.1-.2,30.9-8.6,8.8-22.4,9.3-30.9,1-8.5-8.3-8.4-22.1.2-30.9,8.6-8.8,22.4-9.3,30.9-1h0Z"/>
  <ellipse class="st1" cx="624.9" cy="680.6" rx="17.3" ry="16.7" transform="translate(-298.3 717) rotate(-49.7)"/>
  <path class="st3" d="M236.9,707.4l-12.2,12.1c-.3.3-.9.3-1.2,0l-2.1-2.1c-.3-.3-.3-.9,0-1.2l29.4-29.1c.3-.3.9-.3,1.2,0l2,2c.3.3.3.9,0,1.2l-12.6,12.5c-.3.3-.3.9,0,1.2l16.8,16.9c.3.3.9.4,1.2,0l13.2-12.2c.4-.3.9-.3,1.2,0l2.1,2.1c.3.3.3.9,0,1.2l-29.5,29.1c-.3.3-.9.3-1.2,0l-2.5-2.5c-.3-.3-.3-.9,0-1.2l12.1-12c.3-.3.3-.9,0-1.2l-16.7-16.9c-.3-.3-.9-.3-1.2,0Z"/>
  <path class="st3" d="M555.4,720.8c.6-.7,2.8-2.9,6.5-6.5,5.5-5.4,8.5-8.9,14.6-10.2,6-1.3,11.4,2.7,14.6,7.6,6.7,10.4-4.9,19.6-11.6,25.9-.3.3-.3.7,0,1,0,0,0,0,0,0l8.5,8.6c.3.3.3.8,0,1.1h0s-2.2,2.2-2.2,2.2c-.4.4-1,.4-1.3,0l-28.9-29.3c-.1-.1-.1-.3,0-.5Z"/>
  <path class="st1" d="M562,721.4c-.1-.1-.2-.4,0-.5,0,0,0,0,0,0l8.4-8.4c4.2-4.2,10.4-4.7,13.9-1.2l1.2,1.2c3.5,3.5,2.9,9.7-1.3,13.9,0,0,0,0,0,0l-8.4,8.4c-.1.1-.4.1-.5,0l-13.3-13.3Z"/>
  <rect class="st3" x="258.8" y="743.6" width="43.4" height="4.9" rx="1.3" ry="1.3" transform="translate(-444.8 415.5) rotate(-44.9)"/>
  <path class="st3" d="M538.5,748c.2.5,0,1.1-.6,1.3,0,0,0,0,0,0-4,1.1-7.5,3.1-10.3,6.1-2.1,2.2-4.1,5.9-2.2,8.8,3.6,5.8,10,1.4,15-1.3,3.6-1.9,6.9-3,10.1-3.2,4.1-.3,7.7,3.4,9.3,6.9.9,2.1,1,4.3.3,6.7-2.8,9.1-10.1,13.7-19.4,15.8-1,.2-1.9-.3-2.3-1.2l-.8-2c-.2-.7,0-1.4.7-1.6.1,0,.2,0,.4,0,6.5-.4,11.6-3.5,15.5-9.3,1.5-2.3,1.6-4.7,0-7.2-1.9-3.1-6.4-3-9.2-1.6-4,2-7.4,3.7-10.5,5.1-5,2.3-9.2,1.4-12.6-2.7-2.4-2.8-3-6-1.9-9.6,2.2-7.2,9.1-12.1,16.1-14.3.6-.2,1.2.1,1.4.7l1,2.6Z"/>
  <path class="st3" d="M330.7,778.9c-.2-1.1-.3-2.6-.7-3.8-3-8.9-9.4-13.2-19.2-12.8-5.7.2-11,5.6-13.2,10.3-2.2,4.6-1.3,11.1,1.6,15.4,3.1,4.6,7.5,7.3,13.3,8.1,1.2.2,2,1.3,1.9,2.5,0,0,0,.1,0,.2v.3c-.4,1.2-1.5,2-2.8,1.7-10.3-2-16.7-7.5-19.4-16.4-2.8-9.6,1.7-19.2,9.9-24.2,2.1-1.3,4.2-2,6.5-2.3,10.6-1.2,18.5,2.6,23.6,11.3,1.1,1.8,2.1,5,3,9.4,0,.5-.2.9-.7,1,0,0-.1,0-.2,0h-3c-.4,0-.8-.3-.9-.7Z"/>
</svg>